<svg xmlns="http://www.w3.org/2000/svg" viewBox="0 0 64 64">
  <defs>
    <linearGradient id="g" x1="0" y1="0" x2="1" y2="1">
      <stop offset="0" stop-color="#4f46e5"/>
      <stop offset="1" stop-color="#7c3aed"/>
    </linearGradient>
  </defs>
  <rect width="64" height="64" rx="14" fill="url(#g)"/>
  <g fill="#fff">
    <path d="M32 12c-8.5 0-14 5.8-14 14v17c0 1 .7 1.6 1.6 1.2l3.7-1.6c.5-.2 1.1-.1 1.5.3l2.7 2.7c.4.4 1 .4 1.4 0l2.7-2.7c.4-.4 1-.4 1.4 0l2.7 2.7c.4.4 1 .4 1.4 0l2.7-2.7c.4-.4 1-.5 1.5-.3l3.7 1.6c.9.4 1.6-.2 1.6-1.2V26c0-8.2-5.5-14-14-14z"/>
    <circle cx="25.5" cy="28" r="2.6"/>
    <circle cx="38.5" cy="28" r="2.6"/>
  </g>
</svg>
